Coordinates
version=1
nRows=9
nColumns=36
inDegrees=yes

Units are S.I. units (second, meters, Newtons, ...)
If the header above contains a line with 'inDegrees', this indicates whether rotational values are in degrees (yes) or radians (no).

endheader
time	pelvis_tilt	pelvis_list	pelvis_rotation	pelvis_tx	pelvis_ty	pelvis_tz	hip_flexion_r	hip_adduction_r	hip_rotation_r	knee_angle_r	knee_angle_r_beta	ankle_angle_r	subtalar_angle_r	mtp_angle_r	hip_flexion_l	hip_adduction_l	hip_rotation_l	knee_angle_l	knee_angle_l_beta	ankle_angle_l	subtalar_angle_l	mtp_angle_l	lumbar_extension	lumbar_bending	lumbar_rotation	arm_flex_r	arm_add_r	arm_rot_r	elbow_flex_r	pro_sup_r	arm_flex_l	arm_add_l	arm_rot_l	elbow_flex_l	pro_sup_l
      0.34000000	      6.40452574	     -3.62362766	     -4.72916025	      0.30631965	      1.05928121	     -0.19289802	    -10.58256503	      8.10594186	      4.12281204	      1.61181980	      0.02813156	     10.08658723	      9.09954476	     -6.67634395	     22.86687276	     -3.62569719	     -3.04664244	     58.23421518	      1.01637879	     -1.24108812	    -18.28627833	     -6.67634395	    -11.84809384	      4.26375764	      3.95973925	      3.99995423	    -12.77694104	      7.19676467	     38.93334067	    102.87594574	    -13.34395581	     -5.96465517	      8.66410010	     35.62543535	     93.86947254
      0.35000000	      6.16339410	     -3.61935420	     -5.01385958	      0.31773016	      1.05861820	     -0.19244158	    -10.94091666	      8.02757854	      4.29393036	      1.78801311	      0.03120672	     10.57304907	      9.18969912	     -6.68682721	     23.39691218	     -3.60603483	     -3.02919814	     55.12919198	      0.96218591	     -1.02412706	    -17.91875012	     -6.68682721	    -11.71370446	      4.23945247	      4.19827509	      4.82558026	    -12.94526628	      7.30541744	     39.62022344	    102.88748716	    -14.14297250	     -5.80597649	      8.91169912	     35.40043283	     93.82556938
      0.36000000	      5.84264139	     -3.82947381	     -5.18679282	      0.32920045	      1.05760244	     -0.19212786	    -11.22445754	      8.20837666	      4.37090328	      1.98632665	      0.03466794	     10.87990392	      9.24519753	     -6.69222018	     23.97486674	     -3.79374634	     -2.81604672	     51.94949315	      0.90668970	     -0.94469742	    -17.48601370	     -6.69222018	    -11.45872740	      4.50671485	      4.37887046	      5.64224480	    -13.11319632	      7.33718283	     40.25103409	    102.87029760	    -14.94949453	     -5.61857266	      9.09158759	     35.23364356	     93.78852652
      0.37000000	      5.91446064	     -3.66650277	     -5.45186774	      0.34081582	      1.05714337	     -0.19173613	    -11.96156394	      7.90444689	      4.53550617	      2.10724908	      0.03677843	     11.68162838	      9.51621612	     -6.70680096	     23.81123415	     -3.57788250	     -2.84974883	     48.14068358	      0.84021343	     -1.24281296	    -16.81969066	     -6.70680096	    -11.67590013	      4.24159306	      4.58757916	      6.43892951	    -13.30451762	      7.73726390	     40.99495959	    102.94115764	    -15.65095810	     -5.54764976	      9.40442138	     35.07901370	     93.79882838
      0.38000000	      5.51360439	     -3.80752709	     -5.55552744	      0.35249872	      1.05576053	     -0.19154075	    -12.16028498	      8.01876694	      4.61186273	      2.31824569	      0.04046102	     11.96506577	      9.61217468	     -6.71331906	     24.21004767	     -3.65798968	     -2.50346456	     44.42478639	      0.77535879	     -1.59408826	    -16.08459983	     -6.71331906	    -11.33721779	      4.41718225	      4.58259488	      7.17841916	    -13.40711711	      7.80239854	     41.66370822	    102.92934583	    -16.46895671	     -5.37241342	      9.55883443	     34.93508682	     93.77180842
      0.39000000	      5.63408114	     -3.72289095	     -5.70432654	      0.36440883	      1.05506259	     -0.19132710	    -12.97655344	      7.80800486	      4.60153838	      2.42192665	      0.04227059	     12.72209802	      9.94926778	     -6.73210897	     23.72530272	     -3.48380954	     -2.42620677	     40.10798875	      0.70001646	     -2.82239897	    -15.62629113	     -6.73210897	    -11.52681178	      4.27015265	      4.67363231	      7.97396330	    -13.53458474	      8.14193938	     42.31594040	    103.01319334	    -17.15859095	     -5.26893104	      9.69958931	     34.84279259	     93.81596769
      0.40000000	      5.46040496	     -3.72731069	     -5.73820452	      0.37642836	      1.05374564	     -0.19134146	    -13.42568506	      7.74368751	      4.40723619	      2.63459944	      0.04598243	     13.36398365	     10.36477654	     -6.78310860	     23.50729837	     -3.32180113	     -2.03341259	     35.68090010	      0.62274919	     -4.90019617	    -15.89718394	     -6.78310860	    -11.37220147	      4.28060492	      4.58329928	      8.70801675	    -13.62355399	      8.38984164	     42.86126363	    103.21745674	    -17.93253195	     -5.07732322	      9.55051496	     34.78690192	     94.00384179
      0.41000000	      5.33473542	     -3.75832302	     -5.80742537	      0.38857490	      1.05235686	     -0.19124880	    -13.96737223	      7.71476382	      4.54015383	      2.81218320	      0.04908186	     13.89921838	     10.29832266	     -6.82962571	     23.09139923	     -3.27163135	     -1.81397419	     31.08419960	      0.54252163	     -6.87065674	    -15.58367379	     -6.82962571	    -11.27581873	      4.28668940	      4.55755092	      9.34997871	    -13.66296396	      8.43814384	     43.50780017	    103.38365839	    -18.64964357	     -4.88986703	      9.34812808	     34.72338240	     94.17126400
      0.42000000	      5.18496008	     -3.83910830	     -5.88167376	      0.40082810	      1.05074608	     -0.19121235	    -14.49474517	      7.73739446	      4.77991802	      2.98582155	      0.05211242	     14.39295649	     10.14889619	     -6.84970475	     22.62873957	     -3.33878926	     -1.82544903	     26.50502660	      0.46259998	     -8.43406592	    -14.58800837	     -6.84970475	    -11.14004981	      4.37417846	      4.57482586	      9.92117195	    -13.72850993	      8.44333047	     44.15441742	    103.43431082	    -19.28582660	     -4.69720050	      9.22842323	     34.64104754	     94.20970650
